HIERARCHY
ROOT SpineBase
{
  OFFSET 0.000000 0.000000 0.000000
  CHANNELS 6 Xposition Yposition Zposition Zrotation Xrotation Yrotation
  JOINT SpineMid
  {
    OFFSET 0.000000 29.778282 0.000000
    CHANNELS 3 Zrotation Xrotation Yrotation
    JOINT SpineShoulder
    {
      OFFSET 0.060333 21.964227 -0.708737
      CHANNELS 3 Zrotation Xrotation Yrotation
      JOINT Neck
      {
        OFFSET 0.073249 7.239151 -0.568191
        CHANNELS 3 Zrotation Xrotation Yrotation
        JOINT Head
        {
          OFFSET -3.302016 14.335863 0.801936
          CHANNELS 3 Zrotation Xrotation Yrotation
          End Site
          {
            OFFSET 0 0 0
          }
        }
      }
      JOINT ShoulderLeft
      {
        OFFSET -15.374787 -4.339498 6.692079
        CHANNELS 3 Zrotation Xrotation Yrotation
        JOINT ElbowLeft
        {
          OFFSET -4.722439 -26.164432 3.341459
          CHANNELS 3 Zrotation Xrotation Yrotation
          JOINT WristLeft
          {
            OFFSET -2.376195 -22.724299 -3.078870
            CHANNELS 3 Zrotation Xrotation Yrotation
            JOINT HandLeft
            {
              OFFSET -0.414328 -5.068974 -0.755902
              CHANNELS 3 Zrotation Xrotation Yrotation
              JOINT HandTipLeft
              {
                OFFSET 0.061704 -5.925857 -0.914778
                CHANNELS 3 Zrotation Xrotation Yrotation
                End Site
                {
                  OFFSET 0 0 0
                }
              }
              JOINT ThumbLeft
              {
                OFFSET -2.407941 0.390207 -2.819228
                CHANNELS 3 Zrotation Xrotation Yrotation
                End Site
                {
                  OFFSET 0 0 0
                }
              }
            }
          }
        }
      }
      JOINT ShoulderRight
      {
        OFFSET 14.299377 -5.077787 -11.084766
        CHANNELS 3 Zrotation Xrotation Yrotation
        JOINT ElbowRight
        {
          OFFSET 13.829700 -3.669813 -17.776114
          CHANNELS 3 Zrotation Xrotation Yrotation
          JOINT WristRight
          {
            OFFSET -3.023398 26.347543 -6.392872
            CHANNELS 3 Zrotation Xrotation Yrotation
            JOINT HandRight
            {
              OFFSET -2.555584 5.294917 -1.835078
              CHANNELS 3 Zrotation Xrotation Yrotation
              JOINT HandTipRight
              {
                OFFSET -4.048511 5.415241 -3.634620
                CHANNELS 3 Zrotation Xrotation Yrotation
                End Site
                {
                  OFFSET 0 0 0
                }
              }
              JOINT ThumbRight
              {
                OFFSET -4.333032 -3.429532 -1.249763
                CHANNELS 3 Zrotation Xrotation Yrotation
                End Site
                {
                  OFFSET 0 0 0
                }
              }
            }
          }
        }
      }
    }
  }
  JOINT HipLeft
  {
    OFFSET -6.372748 -0.273309 0.404895
    CHANNELS 3 Zrotation Xrotation Yrotation
    JOINT KneeLeft
    {
      OFFSET 3.591032 -30.603374 5.159237
      CHANNELS 3 Zrotation Xrotation Yrotation
      JOINT AnkleLeft
      {
        OFFSET 4.807964 -29.865099 7.047566
        CHANNELS 3 Zrotation Xrotation Yrotation
        JOINT FootLeft
        {
          OFFSET -3.901236 -5.884119 -10.282791
          CHANNELS 3 Zrotation Xrotation Yrotation
          End Site
          {
            OFFSET 0 0 0
          }
        }
      }
    }
  }
  JOINT HipRight
  {
    OFFSET 6.870639 1.028345 -7.644827
    CHANNELS 3 Zrotation Xrotation Yrotation
    JOINT KneeRight
    {
      OFFSET 6.228125 -31.426057 2.345739
      CHANNELS 3 Zrotation Xrotation Yrotation
      JOINT AnkleRight
      {
        OFFSET 4.839008 -32.931910 5.245757
        CHANNELS 3 Zrotation Xrotation Yrotation
        JOINT FootRight
        {
          OFFSET -5.335491 -4.761808 -12.065913
          CHANNELS 3 Zrotation Xrotation Yrotation
          End Site
          {
            OFFSET 0 0 0
          }
        }
      }
    }
  }
}
MOTION
Frames: 8
Frame Time: 0.033333
-25.414747 68.926225 388.992374 -0.000000 0.000000 31.292471 0.000000 -0.000000 -31.292471 -0.000000 0.000000 0.000000 -0.000000 0.000000 0.000000 0.000000 0.000000 0.000000 -0.000000 0.000000 0.000000 -0.000000 0.000000 0.000000 -0.000000 0.000000 0.000000 -0.000000 0.000000 0.000000 0.000000 0.000000 0.000000 0.000000 0.000000 0.000000 -0.000000 0.000000 0.000000 -0.000000 0.000000 0.000000 -0.000000 0.000000 0.000000 -0.000000 0.000000 0.000000 0.000000 0.000000 0.000000 0.000000 0.000000 0.000000 0.000000 -0.000000 -31.292471 -0.000000 0.000000 0.000000 -0.000000 0.000000 0.000000 0.000000 0.000000 0.000000 0.000000 -0.000000 -31.292471 -0.000000 0.000000 0.000000 -0.000000 0.000000 0.000000 0.000000 0.000000 0.000000
-25.221984 68.861209 388.877933 0.245578 0.180497 30.862596 -0.303395 -0.028961 -30.863059 -0.000000 0.000000 0.000000 -0.000000 0.000000 0.000000 0.000000 0.000000 0.000000 -0.000000 0.000000 0.000000 0.619464 -0.731610 -0.003478 -2.180866 -3.868423 0.580632 -0.618082 1.974500 -0.235522 0.000000 0.000000 0.000000 0.000000 0.000000 0.000000 -0.000000 0.000000 0.000000 0.993660 0.159159 0.257818 -2.454611 1.551157 0.072375 0.175023 -1.208005 -0.826860 0.000000 0.000000 0.000000 0.000000 0.000000 0.000000 -0.303395 -0.028961 -30.863059 -0.000000 0.000000 0.000000 2.528060 -6.286653 -0.120828 0.000000 0.000000 0.000000 -0.303395 -0.028961 -30.863059 -0.000000 0.000000 0.000000 -0.000000 0.000000 0.000000 0.000000 0.000000 0.000000
-25.063337 68.807736 388.791823 0.429165 0.321787 30.507576 -0.533107 -0.059365 -30.509057 -0.000000 0.000000 0.000000 -0.000000 0.000000 0.000000 0.000000 0.000000 0.000000 -0.000000 0.000000 0.000000 1.152585 -1.448949 0.009955 -4.287055 -7.199614 1.047605 -0.685324 3.852048 -0.446138 0.000000 0.000000 0.000000 0.000000 0.000000 0.000000 -0.509743 -0.487192 0.655465 2.401466 0.702978 -0.194983 -4.687204 2.940843 0.128978 0.314556 -2.094753 -1.492623 0.000000 0.000000 0.000000 0.000000 0.000000 0.000000 -0.533107 -0.059365 -30.509057 -0.000000 0.000000 0.000000 4.697376 -11.644242 0.015968 0.000000 0.000000 0.000000 -0.533107 -0.059365 -30.509057 -0.000000 0.000000 0.000000 -0.000000 0.000000 0.000000 0.000000 0.000000 0.000000
-24.938807 68.765805 388.734042 0.550939 0.423989 30.226366 -0.689477 -0.088977 -30.228939 -0.000000 0.000000 0.000000 -0.907390 0.303097 0.123180 0.000000 0.000000 0.000000 0.063234 -0.875457 0.166428 1.530497 -1.279095 -0.151445 -6.286692 -9.779138 1.405573 -0.266674 5.400253 -0.696643 0.000000 0.000000 0.000000 0.000000 0.000000 0.000000 -0.760403 -0.746828 0.915723 3.445440 0.942483 -0.289558 -6.717483 4.193849 0.173376 0.456768 -2.695847 -1.982731 0.000000 0.000000 0.000000 0.000000 0.000000 0.000000 -1.471633 -0.312168 -30.395452 0.561757 0.588231 0.160891 6.274185 -15.468150 0.269627 0.000000 0.000000 0.000000 -0.689477 -0.088977 -30.228939 -0.000000 0.000000 0.000000 -0.000000 0.000000 0.000000 0.000000 0.000000 0.000000
-24.848394 68.735417 388.704591 0.611037 0.487204 30.018321 -0.772811 -0.116142 -30.021702 -0.000000 0.000000 0.000000 -0.993183 0.382012 0.147127 0.000000 0.000000 0.000000 0.119383 -1.122254 0.218746 1.828046 -1.717482 -0.174697 -8.148890 -11.445114 1.673855 0.575394 6.438359 -1.028289 0.000000 0.000000 0.000000 0.000000 0.000000 0.000000 -1.010371 -1.018250 1.134366 4.385042 1.111564 -0.382290 -8.563490 5.330162 0.208898 0.634807 -3.043394 -2.283083 0.000000 0.000000 0.000000 0.000000 0.000000 0.000000 -1.684718 -0.353999 -30.216138 0.668353 0.664424 0.186819 7.061010 -17.370627 0.478003 0.000000 0.000000 0.000000 -1.588065 0.095857 -30.127048 0.811535 0.225825 0.103602 0.250852 0.156614 -0.810625 0.000000 0.000000 0.000000
-24.792098 68.716572 388.703470 0.609559 0.511506 29.883192 -0.783362 -0.139770 -29.886868 -0.000000 0.000000 0.000000 -0.971512 0.450369 0.162181 0.000000 0.000000 0.000000 0.193023 -1.346398 0.269620 2.018582 -2.158354 -0.184586 -9.844065 -12.090796 1.881382 1.787747 6.842795 -1.450534 0.000000 0.000000 0.000000 0.000000 0.000000 0.000000 -1.261181 -1.302419 1.313257 5.220788 1.213176 -0.473143 -10.241671 6.365520 0.238246 0.876796 -3.165703 -2.381316 0.000000 0.000000 0.000000 0.000000 0.000000 0.000000 -1.759812 -0.359992 -30.094799 0.734450 0.680103 0.199313 6.946640 -17.181720 0.537626 0.000000 0.000000 0.000000 -1.578695 0.131539 -29.980536 0.824490 0.162424 0.092443 0.288147 0.181376 -0.932685 0.000000 0.000000 0.000000
-24.798083 68.698577 388.777863 0.516898 0.425104 29.831827 -0.659873 -0.111625 -29.834387 -0.000000 0.000000 0.000000 -0.923272 0.540051 0.180679 0.000000 0.000000 0.000000 0.241036 -1.720987 0.344518 2.196181 -2.538891 -0.207378 -11.952751 -12.156213 2.127354 3.728089 6.549171 -2.114905 0.000000 0.000000 0.000000 0.000000 0.000000 0.000000 -1.498951 -1.589826 1.413290 5.866279 1.088874 -0.546959 -10.955712 8.465957 1.120552 0.784874 -3.887217 -2.650913 0.000000 0.000000 0.000000 0.000000 0.000000 0.000000 -1.630210 -0.247341 -30.038392 0.772116 0.603176 0.196901 8.888671 -21.068628 0.352713 0.000000 0.000000 0.000000 -0.659873 -0.111625 -29.834387 -0.000000 0.000000 0.000000 0.319793 0.198360 -1.031809 0.000000 0.000000 0.000000
-24.922385 68.687452 388.909429 0.232203 0.235479 29.911355 -0.318697 -0.088321 -29.912078 -0.000000 0.000000 0.000000 -0.660585 0.643377 0.189046 0.000000 0.000000 0.000000 0.312786 -2.007436 0.407075 2.148987 -2.992578 -0.188707 -13.134750 -9.535425 2.318944 5.776579 4.792985 -2.599612 0.000000 0.000000 0.000000 0.000000 0.000000 0.000000 -1.591054 -1.764984 1.180836 6.303347 1.235110 -0.264737 -12.342844 7.737122 0.290594 1.138716 -2.927783 -2.246819 0.000000 0.000000 0.000000 0.000000 0.000000 0.000000 -0.318697 -0.088321 -29.912078 0.265017 -0.791275 -0.062894 6.592542 -15.844392 0.113391 0.000000 0.000000 0.000000 -0.318697 -0.088321 -29.912078 -0.000000 0.000000 0.000000 0.302668 0.190208 -0.979312 0.000000 0.000000 0.000000
